<svg width="50px" height="90px" viewBox="0 0 50 90" version="1.1" xmlns="http://www.w3.org/2000/svg" xmlns:xlink="http://www.w3.org/1999/xlink">
    <title>Group</title>
    <defs></defs>
    <g id="DesignDesktop" stroke="none" stroke-width="1" fill="none" fill-rule="evenodd">
        <g id="DesktopLanding" transform="translate(-600.000000, -946.000000)">
            <g id="Group-4" transform="translate(600.000000, 946.000000)">
                <g id="noun_460703_cc">
                    <g id="Group">
                        <path d="M44.8,0 L5,0 C2.2,0 3.55271368e-15,2.2 3.55271368e-15,5 L3.55271368e-15,85 C3.55271368e-15,87.8 2.2,90 5,90 L44.8,90 C47.6,90 49.8,87.8 49.8,85 L49.8,5 C49.8,2.2 47.6,0 44.8,0 L44.8,0 Z M24.9,87 C23.5,87 22.3,85.9 22.3,84.4 C22.3,82.9 23.4,81.8 24.9,81.8 C26.4,81.8 27.5,82.9 27.5,84.4 C27.5,85.9 26.3,87 24.9,87 L24.9,87 Z M45.9,77.7 C45.9,78.8 45,79.7 43.9,79.7 L6,79.7 C4.9,79.7 4,78.8 4,77.7 L4,9 C4,7.9 4.9,7 6,7 L43.9,7 C45,7 45.9,7.9 45.9,9 L45.9,77.7 L45.9,77.7 Z" id="Shape" fill="#7ADED4"></path>
                        <g transform="translate(9.000000, 35.000000)" stroke="#7ADED4">
                            <circle id="Oval" stroke-width="2.376" cx="15" cy="18.6" r="0.6"></circle>
                            <g id="Shape" stroke-width="3.96">
                                <path d="M4.6,11 C10.4,5.2 19.7,5.2 25.5,11"></path>
                                <path d="M8.7,15.2 C12.2,11.7 17.8,11.7 21.2,15.2"></path>
                                <path d="M0.4,6.9 C8.5,-1.2 21.5,-1.2 29.6,6.9"></path>
                            </g>
                        </g>
                    </g>
                </g>
            </g>
        </g>
    </g>
</svg>
