<svg width="67px" height="88px" viewBox="0 0 67 88" version="1.1" xmlns="http://www.w3.org/2000/svg" xmlns:xlink="http://www.w3.org/1999/xlink">
    <title>Shape</title>
    <defs></defs>
    <g id="DesignDesktop" stroke="none" stroke-width="1" fill="none" fill-rule="evenodd">
        <g id="DesktopLanding" transform="translate(-755.000000, -818.000000)" fill="#7ADED4">
            <g id="Group-3" transform="translate(243.000000, 818.000000)">
                <g id="noun_121237_cc" transform="translate(512.000000, 0.000000)">
                    <g id="Group">
                        <path d="M42.1010345,66.1921333 C50.7265562,63.866 57.9363388,58.2956 62.4020345,50.5090667 C66.8648171,42.7210667 68.0518823,33.6482667 65.7418388,24.9626667 C61.831078,10.2652 48.5592519,-7.10542736e-15 33.4667736,-7.10542736e-15 C30.5537301,-7.10542736e-15 27.6348606,0.388666667 24.7946432,1.15573333 C16.1691214,3.48333333 8.95933882,9.05373333 4.49364317,16.8417333 C0.0279475166,24.6312 -1.15766118,33.704 1.15383882,42.3896 C4.53151273,55.0850667 14.900491,64.4541333 27.3901649,66.7758667 L27.3901649,70.2504 L19.827904,70.2504 C19.023904,70.2504 18.3713823,70.906 18.3713823,71.7170667 L18.3713823,71.9898667 L8.83699099,71.9898667 C8.03299099,71.9898667 7.38046926,72.6454667 7.38046926,73.4565333 C7.38046926,74.2676 8.03299099,74.9232 8.83699099,74.9232 L18.3713823,74.9232 L18.3713823,82.8314667 L8.83699099,82.8314667 C8.03299099,82.8314667 7.38046926,83.4870667 7.38046926,84.2981333 C7.38046926,85.1092 8.03299099,85.7648 8.83699099,85.7648 L18.3713823,85.7648 L18.3713823,86.0361333 C18.3713823,86.8472 19.023904,87.5028 19.827904,87.5028 L47.0648606,87.5028 C47.8703171,87.5028 48.5213823,86.8472 48.5213823,86.0361333 L48.5213823,85.7648 L58.0572301,85.7648 C58.8626866,85.7648 59.5137519,85.1092 59.5137519,84.2981333 C59.5137519,83.4870667 58.8626866,82.8314667 58.0572301,82.8314667 L48.5213823,82.8314667 L48.5213823,74.9232 L58.0572301,74.9232 C58.8626866,74.9232 59.5137519,74.2676 59.5137519,73.4565333 C59.5137519,72.6454667 58.8626866,71.9898667 58.0572301,71.9898667 L48.5213823,71.9898667 L48.5213823,71.7170667 C48.5213823,70.906 47.8703171,70.2504 47.0648606,70.2504 L39.5055127,70.2504 L39.5055127,66.7714667 C40.3765127,66.6086667 41.2445997,66.4238667 42.1010345,66.1921333 L42.1010345,66.1921333 Z M24.277578,84.5665333 L21.2858823,84.5665333 L21.2858823,73.1822667 L24.277578,73.1822667 L24.277578,84.5665333 L24.277578,84.5665333 Z M42.6180997,73.1822667 L45.6097953,73.1822667 L45.6097953,84.5665333 L42.6180997,84.5665333 L42.6180997,73.1822667 L42.6180997,73.1822667 Z M39.7050562,73.1822667 L39.7050562,84.5665333 L27.1906214,84.5665333 L27.1906214,73.1822667 L39.7050562,73.1822667 L39.7050562,73.1822667 Z M30.3017519,70.2489333 L30.3017519,67.1865333 C31.3344258,67.2833333 32.3758388,67.3449333 33.4274475,67.3449333 C34.3188388,67.3449333 35.2087736,67.2965333 36.0972519,67.2232 C36.2618388,67.2114667 36.4264258,67.2173333 36.5910127,67.2026667 L36.5910127,70.2474667 L30.3017519,70.2474667 L30.3017519,70.2489333 Z M35.4796866,64.3412 C33.3313171,64.4732 31.1727519,64.3822667 29.0666214,64.0581333 C29.0360345,64.0537333 29.0054475,64.0669333 28.9763171,64.064 C17.1056649,62.2937333 7.14596926,53.5758667 3.96783882,41.6298667 C1.85733882,33.6996 2.93953447,25.4173333 7.01633882,18.3069333 C11.0931432,11.198 17.6737084,6.11306667 25.5491214,3.98786667 C28.1431866,3.28826667 30.8086214,2.93333333 33.4682301,2.93333333 C47.2454693,2.93333333 59.3593606,12.3038667 62.9307519,25.7224 C65.0397953,33.6526667 63.9561432,41.9349333 59.8807953,49.0438667 C55.8054475,56.1528 49.2248823,61.2362667 41.3494693,63.3614667 C39.4210345,63.8792 37.4532736,64.2062667 35.4796866,64.3412 L35.4796866,64.3412 Z M53.3045997,53.1476 C54.0124693,52.4142667 54.664991,51.6501333 55.2767301,50.8698667 C55.3058606,50.8390667 55.3437301,50.8288 55.368491,50.7950667 C55.5126866,50.6088 55.636491,50.4108 55.773404,50.2216 C56.0574258,49.8358667 56.3385345,49.4501333 56.5992519,49.0556 C56.7507301,48.8253333 56.8890997,48.5877333 57.0347519,48.3530667 C57.1731214,48.1286667 57.3187736,47.9057333 57.4498606,47.6798667 C57.4600562,47.6652 57.4717084,47.6549333 57.4804475,47.6417333 C57.4862736,47.6314667 57.4862736,47.6197333 57.4906432,47.6109333 C57.5285127,47.5449333 57.5561866,47.476 57.5925997,47.41 C57.981491,46.7221333 58.3397953,46.024 58.6660562,45.3082667 C58.6937301,45.2496 58.7243171,45.1924 58.751991,45.1337333 C59.4613171,43.5526667 60.0191649,41.9114667 60.4211649,40.2248 C60.493991,39.9212 60.5464258,39.6161333 60.6090562,39.3110667 C60.7080997,38.8226667 60.8027736,38.3342667 60.8770562,37.84 C60.9396866,37.4234667 60.9862953,37.0054667 61.029991,36.586 C61.0693171,36.1973333 61.1013606,35.8072 61.1246649,35.4141333 C61.1523388,34.958 61.1741866,34.5018667 61.1800127,34.0428 C61.1814693,33.9196 61.194578,33.7978667 61.194578,33.6732 C61.194578,33.6732 61.194578,33.6732 61.194578,33.6717333 L61.194578,33.6717333 C61.194578,33.4590667 61.166904,33.2552 61.163991,33.044 C61.1494258,32.4588 61.127578,31.8750667 61.0751432,31.2884 C61.0387301,30.8572 60.9833823,30.4318667 60.926578,30.0050667 C60.8668606,29.5562667 60.8042301,29.1089333 60.7212084,28.6601333 C60.627991,28.138 60.5114693,27.6217333 60.3876649,27.1098667 C60.3337736,26.8884 60.3017301,26.664 60.2434693,26.4425333 C60.2041432,26.2944 60.1473388,26.1536 60.1036432,26.0069333 C59.957991,25.4965333 59.7963171,24.9978667 59.6244475,24.4992 C59.486078,24.1002667 59.3462519,23.7028 59.1918606,23.3112 C59.0330997,22.9137333 58.8612301,22.5250667 58.684991,22.1364 C58.4665127,21.6465333 58.2378388,21.1610667 57.9902301,20.6858667 C57.8547736,20.4292 57.713491,20.1769333 57.5707519,19.9246667 C57.5474475,19.8850667 57.5285127,19.8454667 57.5052084,19.8058667 C57.4877301,19.7721333 57.4891866,19.734 57.4702519,19.7002667 C57.4542301,19.6724 57.4265562,19.6577333 57.409078,19.6313333 C57.1352519,19.1561333 56.8512301,18.6926667 56.5511866,18.2365333 C56.4535997,18.0884 56.3516432,17.9461333 56.2525997,17.8009333 C55.8316649,17.1893333 55.3932519,16.5909333 54.9257084,16.016 C54.8470562,15.9206667 54.765491,15.8282667 54.6868388,15.7329333 C54.1974475,15.1477333 53.6891214,14.5786667 53.1531214,14.0345333 C53.0467953,13.926 52.9331866,13.8218667 52.8239475,13.7148 C52.3156214,13.2176 51.7970997,12.7336 51.250904,12.276 C51.049904,12.1058667 50.8416214,11.9489333 50.6347953,11.7846667 C50.1701649,11.4150667 49.6982519,11.0513333 49.207404,10.7096 C48.8738606,10.4764 48.5257519,10.2622667 48.1805562,10.0437333 C47.895078,9.86333333 47.6241649,9.66386667 47.331404,9.49226667 C47.3241214,9.48786667 47.3197519,9.48053333 47.3124693,9.47613333 C47.3051866,9.47173333 47.297904,9.4732 47.2906214,9.4688 C47.158078,9.39253333 47.0211649,9.32653333 46.890078,9.2532 C46.7036432,9.14906667 46.5157519,9.0508 46.326404,8.95106667 C45.7598171,8.6504 45.184491,8.37026667 44.5989693,8.11213333 C44.4343823,8.0388 44.2727084,7.95813333 44.1052084,7.88773333 C43.4162736,7.5988 42.7156866,7.34506667 42.0078171,7.11333333 C41.7543823,7.02973333 41.4980345,6.95493333 41.2431432,6.87866667 C40.6372301,6.69826667 40.025491,6.53986667 39.4093823,6.402 C39.2433388,6.36533333 39.0802084,6.3184 38.9127084,6.28466667 C38.1363823,6.12626667 37.3513171,6.01186667 36.5618823,5.9224 C36.3594258,5.89893333 36.1584258,5.87986667 35.9559693,5.8608 C35.1286649,5.78453333 34.2984475,5.7332 33.4653171,5.7332 L33.4492953,5.7332 L33.4390997,5.7332 C33.4390997,5.7332 33.4390997,5.7332 33.4376432,5.7332 L33.4376432,5.7332 C33.4216214,5.7332 33.4070562,5.73466667 33.389578,5.73466667 C32.5899475,5.7376 31.7961432,5.786 31.0067084,5.8564 C30.745991,5.87986667 30.4867301,5.9048 30.2274693,5.9356 C29.5662084,6.0148 28.9093171,6.11306667 28.2597084,6.2392 C27.8780997,6.31253333 27.5037736,6.402 27.127991,6.49 C26.692491,6.59266667 26.259904,6.70266667 25.8302301,6.82586667 C25.4457084,6.93586667 25.0655562,7.05173333 24.6897736,7.17786667 C24.3023388,7.3084 23.9221866,7.45506667 23.540578,7.60173333 C22.9579693,7.8276 22.3870127,8.0696 21.8233388,8.33213333 C21.4868823,8.48906667 21.1533388,8.64893333 20.8227084,8.81906667 C20.4775127,8.998 20.1337736,9.1784 19.7973171,9.37053333 C19.7536214,9.39546667 19.7084693,9.41746667 19.6647736,9.4424 C19.6327301,9.45853333 19.5977736,9.45706667 19.5671866,9.47466667 C19.5365997,9.49373333 19.5176649,9.52453333 19.4885345,9.54506667 C19.0923606,9.7768 18.7049258,10.0232 18.320404,10.2754667 C18.0363823,10.4617333 17.7581866,10.6568 17.4814475,10.8533333 C17.0226432,11.1789333 16.572578,11.5162667 16.1327084,11.8682667 C15.938991,12.0252 15.7438171,12.1821333 15.5544693,12.3434667 C14.9602084,12.848 14.3805127,13.3686667 13.828491,13.9230667 C13.8270345,13.9245333 13.8241214,13.9274667 13.8226649,13.9289333 C13.2517084,14.5024 12.7127953,15.1110667 12.1913606,15.7358667 C12.0923171,15.8546667 11.9932736,15.9749333 11.8956866,16.0952 C10.9897301,17.2186667 10.1565997,18.4096 9.42542578,19.6797333 C9.42105621,19.6885333 9.41231708,19.6929333 9.40794752,19.7002667 C9.40357795,19.7090667 9.40357795,19.7193333 9.39920839,19.7281333 C9.33512143,19.8425333 9.28268665,19.9598667 9.22005621,20.0742667 C9.05546926,20.372 8.90399099,20.6756 8.74959969,20.9792 C8.53403447,21.4045333 8.32429534,21.8328 8.13349099,22.2654667 C7.96307795,22.6453333 7.80431708,23.0310667 7.6513823,23.4197333 C7.51446926,23.7702667 7.38775186,24.1222667 7.26686056,24.4742667 C7.10373013,24.9421333 6.94642578,25.4114667 6.80805621,25.8896 C6.74833882,26.0978667 6.70173013,26.3076 6.64783882,26.5158667 C6.1307736,28.4797333 5.82199099,30.5228 5.74333882,32.6289333 C5.74333882,32.6465333 5.7418823,32.6656 5.74042578,32.6832 C5.7287736,33.0132 5.69090404,33.3358667 5.69090404,33.6688 L5.69090404,33.6688 L5.69090404,33.6702667 C5.69090404,38.6173333 6.9682736,43.3458667 9.3802736,47.5566667 C9.3933823,47.5830667 9.3933823,47.6124 9.40794752,47.6402667 C9.43562143,47.6872 9.47203447,47.7224 9.50407795,47.7649333 C10.1114475,48.8062667 10.7697953,49.8241333 11.5184475,50.7936 C11.5592301,50.8478667 11.6189475,50.8757333 11.6655562,50.9212 C12.2641866,51.6868 12.890491,52.4377333 13.5765127,53.1476 C13.8503388,53.4292 14.227578,53.5905333 14.6193823,53.5905333 L52.252991,53.5905333 C52.654991,53.592 53.0293171,53.4321333 53.3045997,53.1476 L53.3045997,53.1476 Z M15.2515127,50.6586667 C14.3120562,49.6393333 13.4730997,48.5510667 12.7302736,47.4129333 L13.9231649,46.7221333 C14.6208388,46.3188 14.8611649,45.4212 14.4591649,44.7186667 C14.0586214,44.0176 13.1686866,43.7741333 12.4710127,44.1789333 L11.2912301,44.8609333 C9.77936056,41.8146667 8.90690404,38.5044 8.70590404,35.1398667 L10.0604693,35.1413333 L10.0619258,35.1413333 C10.8659258,35.1413333 11.5184475,34.4857333 11.5184475,33.6761333 C11.5184475,32.8665333 10.8673823,32.2094667 10.0633823,32.208 L8.69425186,32.2065333 C8.79183882,30.47 9.06712143,28.7408 9.52592578,27.0424 C9.55942578,26.9162667 9.58709969,26.7857333 9.62351273,26.6610667 C9.74586056,26.2328 9.8958823,25.8089333 10.042991,25.3865333 C10.1507736,25.0814667 10.2556432,24.7749333 10.375078,24.4742667 C10.511991,24.1252 10.6590997,23.7790667 10.8120345,23.4358667 C10.9576866,23.1102667 11.114991,22.792 11.2722953,22.4737333 L12.4666432,23.1689333 C12.6953171,23.3024 12.9472953,23.3654667 13.194904,23.3654667 C13.697404,23.3654667 14.1867953,23.1029333 14.4577084,22.6321333 C14.8597084,21.9310667 14.6222953,21.0349333 13.926078,20.6286667 L12.7215345,19.9276 C12.7710562,19.8542667 12.8103823,19.7736 12.8584475,19.7002667 C12.8613606,19.6958667 12.8657301,19.6914667 12.8700997,19.6856 C13.2720997,19.0872 13.7061432,18.5122667 14.1576649,17.952 C14.2523388,17.8346667 14.3470127,17.7188 14.4431432,17.6044 C14.897578,17.0617333 15.366578,16.5337333 15.8632519,16.0306667 C15.8778171,16.0174667 15.8909258,16.0013333 15.9040345,15.9881333 C16.3905127,15.4982667 16.9061214,15.0377333 17.4319258,14.5904 C17.611078,14.4378667 17.7916866,14.2912 17.9737519,14.1445333 C18.3524475,13.8394667 18.7427953,13.5490667 19.1389693,13.266 C19.358904,13.1105333 19.5759258,12.9506667 19.8016866,12.8025333 L20.4935345,14.0110667 C20.762991,14.4818667 21.2523823,14.7444 21.7563388,14.7444 C22.002491,14.7444 22.2530127,14.6813333 22.4831432,14.5478667 C23.1808171,14.1430667 23.4196866,13.2469333 23.0176866,12.5444 L22.3287519,11.3417333 C22.5588823,11.2244 22.7919258,11.1129333 23.0264258,11.0029333 C23.5595127,10.7550667 24.0998823,10.5248 24.648991,10.3150667 C24.9665127,10.1933333 25.2840345,10.0701333 25.6088388,9.96013333 C25.952578,9.84426667 26.3021432,9.74013333 26.6517084,9.63893333 C27.0231214,9.53186667 27.4003606,9.43653333 27.7775997,9.34706667 C28.130078,9.262 28.4840127,9.18133333 28.8408606,9.1124 C29.4103606,9.00386667 29.9871432,8.9144 30.5697519,8.84546667 C30.8057084,8.8176 31.0416649,8.7956 31.279078,8.7736 C31.5150345,8.75306667 31.7568171,8.75013333 31.9956866,8.73693333 L31.9971432,10.1229333 C31.9971432,10.9325333 32.6496649,11.5881333 33.4536649,11.5881333 L33.4551214,11.5881333 C34.260578,11.5881333 34.9116432,10.9296 34.9101866,10.12 L34.9087301,8.73693333 C35.1738171,8.75306667 35.4418171,8.75306667 35.703991,8.778 C35.8845997,8.79413333 36.0652084,8.81026667 36.2443606,8.83226667 C36.9551432,8.91293333 37.6600997,9.01706667 38.350491,9.1564 C38.4990562,9.1872 38.6447084,9.22826667 38.7932736,9.26053333 C39.3467519,9.38226667 39.891491,9.526 40.430404,9.68586667 C40.661991,9.7548 40.893578,9.82373333 41.1251649,9.89853333 C41.7587519,10.1068 42.3821432,10.3312 42.9909693,10.5878667 C43.1497301,10.6553333 43.305578,10.7330667 43.4628823,10.8034667 C43.8401214,10.9721333 44.2057084,11.1569333 44.5727519,11.3432 L43.8838171,12.5458667 C43.4818171,13.2484 43.7221432,14.1445333 44.4183606,14.5493333 C44.6470345,14.6828 44.8975562,14.7458667 45.1437084,14.7458667 C45.6476649,14.7458667 46.1385127,14.4818667 46.4065127,14.0125333 L47.0925345,12.8157333 C47.2512953,12.9213333 47.4187953,13.0196 47.5746432,13.1281333 C47.998491,13.4244 48.4063171,13.7397333 48.8112301,14.0609333 C49.0107736,14.2164 49.2103171,14.3704 49.4040345,14.5332 C49.877404,14.9336 50.3332953,15.3545333 50.7746214,15.7886667 C50.8838606,15.8957333 50.9960127,15.9998667 51.1052519,16.1084 C51.5727953,16.5850667 52.0199475,17.0837333 52.4496214,17.5985333 C52.5297301,17.6924 52.6098388,17.7862667 52.688491,17.8816 C53.0992301,18.3876 53.4852084,18.9141333 53.8551649,19.4509333 C53.9512953,19.5902667 54.0503388,19.7266667 54.1420997,19.8689333 C54.1552084,19.8894667 54.1668606,19.9114667 54.1799693,19.932 L52.9768823,20.6345333 C52.2792084,21.0408 52.0417953,21.9384 52.4467084,22.638 C52.7176214,23.1073333 53.2055562,23.3698667 53.7080562,23.3698667 C53.9556649,23.3698667 54.2076432,23.3068 54.4363171,23.1718667 L55.6277519,22.4766667 C55.770491,22.7612 55.9088606,23.0486667 56.0399475,23.3390667 C56.1972519,23.6910667 56.3560127,24.0430667 56.4972953,24.4053333 C56.6356649,24.7514667 56.7594693,25.1049333 56.8818171,25.4584 C57.0347519,25.9057333 57.1833171,26.356 57.314404,26.8150667 C57.4061649,27.1392 57.4862736,27.4677333 57.5663823,27.7977333 C57.677078,28.2612 57.780491,28.7261333 57.8649693,29.1910667 C57.9363388,29.5841333 57.9945997,29.9816 58.0470345,30.382 C58.0980127,30.7706667 58.146078,31.1578667 58.1810345,31.5465333 C58.1999693,31.7650667 58.2014258,31.9894667 58.213078,32.2094667 L56.8366649,32.2109333 C56.0312084,32.2109333 55.3801432,32.8694667 55.3815997,33.6790667 C55.3830562,34.4886667 56.0341214,35.1442667 56.8381214,35.1442667 L56.839578,35.1442667 L58.2276432,35.1428 C58.2261866,35.1677333 58.2261866,35.1912 58.2247301,35.2146667 C58.2028823,35.5784 58.1752084,35.9406667 58.1358823,36.3014667 C58.0994693,36.6652 58.0557736,37.0289333 58.0018823,37.3897333 C57.9334258,37.8488 57.8489475,38.3049333 57.7542736,38.7596 C57.7018388,39.0148 57.6566866,39.2714667 57.5969693,39.5252 C57.2342953,41.0314667 56.7376214,42.5098667 56.0952953,43.9428 C56.0778171,43.9809333 56.0574258,44.0161333 56.0399475,44.0542667 C55.9146866,44.3314667 55.7602953,44.5998667 55.6233823,44.8726667 L54.430491,44.1818667 C53.7328171,43.7785333 52.8428823,44.0190667 52.4408823,44.7216 C52.0403388,45.4241333 52.2806649,46.3217333 52.9768823,46.7250667 L54.1522953,47.4056 C53.9512953,47.7106667 53.7706866,48.0216 53.5551214,48.3193333 C53.5012301,48.3941333 53.4502519,48.4718667 53.3963606,48.5437333 C52.855991,49.2682667 52.2733823,49.9766667 51.6412519,50.6601333 L15.2515127,50.6601333 L15.2515127,50.6586667 Z M30.1954258,19.1928 C29.8458606,18.6794667 29.2122736,18.4433333 28.6165562,18.6046667 C28.0193823,18.766 27.5882519,19.2896 27.5416432,19.91 C27.3450127,22.5148 26.4011866,35.6502667 27.1512953,38.4677333 C27.9130562,41.3365333 30.5012953,43.3385333 33.4463823,43.3385333 C34.0158823,43.3385333 34.5853823,43.2622667 35.1403171,43.1126667 C38.6126649,42.1754667 40.6823823,38.5674667 39.7531214,35.0694667 C38.9986432,32.2505333 31.6577736,21.3502667 30.1954258,19.1928 L30.1954258,19.1928 Z M34.3843823,40.2790667 C32.4836214,40.7909333 30.4677953,39.6029333 29.9638388,37.708 C29.5880562,36.2970667 29.8254693,29.9068 30.1575562,24.3965333 C33.1812953,29.0004 36.5604258,34.4168 36.9376649,35.8277333 C37.4503606,37.7637333 36.3055345,39.7613333 34.3843823,40.2790667 L34.3843823,40.2790667 Z M31.9024693,34.9345333 C31.4946432,35.3452 31.2615997,35.9025333 31.2615997,36.4892 C31.2615997,37.0612 31.4946432,37.6332 31.9024693,38.0438667 C32.3102953,38.4545333 32.8637736,38.6892 33.4463823,38.6892 C34.0144258,38.6892 34.5824693,38.4545333 34.9902953,38.0438667 C35.3981214,37.6332 35.6311649,37.0612 35.6311649,36.4892 C35.6311649,35.9025333 35.3981214,35.3452 34.9902953,34.9345333 C34.1746432,34.1132 32.7181214,34.1132 31.9024693,34.9345333 L31.9024693,34.9345333 Z M39.5055127,56.2232 L27.3974475,56.2232 C26.5934475,56.2232 25.9409258,56.8788 25.9409258,57.6898667 C25.9409258,58.5009333 26.5934475,59.1565333 27.3974475,59.1565333 L39.5055127,59.1565333 C40.3109693,59.1565333 40.9620345,58.5009333 40.9620345,57.6898667 C40.9620345,56.8788 40.3109693,56.2232 39.5055127,56.2232 L39.5055127,56.2232 Z" id="Shape"></path>
                    </g>
                </g>
            </g>
        </g>
    </g>
</svg>
