<?xml version="1.0" encoding="UTF-8" standalone="no"?>
<svg width="56px" height="56px" viewBox="0 0 56 56" version="1.1" xmlns="http://www.w3.org/2000/svg" xmlns:xlink="http://www.w3.org/1999/xlink">
    <!-- Generator: Sketch 3.8.2 (29753) - http://www.bohemiancoding.com/sketch -->
    <title>ducha</title>
    <desc>Created with Sketch.</desc>
    <defs></defs>
    <g id="ICONS" stroke="none" stroke-width="1" fill="none" fill-rule="evenodd">
        <g id="ducha" fill="#fff">
            <g id="Group">
                <g id="Shape">
                    <path d="M51.8877551,34.5626667 L3.45918367,34.5626667 C1.55202041,34.5626667 0,33.0072889 0,31.096 C0,29.1847111 1.55202041,27.6293333 3.45918367,27.6293333 L51.8877551,27.6293333 C53.7949184,27.6293333 55.3469388,29.1847111 55.3469388,31.096 C55.3469388,33.0072889 53.7949184,34.5626667 51.8877551,34.5626667 L51.8877551,34.5626667 Z M3.45918367,29.9404444 C2.825,29.9404444 2.30612245,30.4581333 2.30612245,31.096 C2.30612245,31.7338667 2.825,32.2515556 3.45918367,32.2515556 L51.8877551,32.2515556 C52.5219388,32.2515556 53.0408163,31.7338667 53.0408163,31.096 C53.0408163,30.4581333 52.5219388,29.9404444 51.8877551,29.9404444 L3.45918367,29.9404444 L3.45918367,29.9404444 Z"></path>
                    <path d="M42.0567551,50.7404444 L13.2901837,50.7404444 C9.70416327,50.7404444 6.51479592,48.3276444 5.53008163,44.8725333 L2.3522449,33.7237333 C2.17697959,33.1089778 2.52981633,32.4711111 3.1432449,32.2954667 C3.76589796,32.1221333 4.39546939,32.4757333 4.56842857,33.0904889 L7.74626531,44.2392889 C8.45193878,46.7052444 10.7303878,48.4293333 13.2901837,48.4293333 L42.0590612,48.4293333 C44.6188571,48.4293333 46.8996122,46.7052444 47.6029796,44.2392889 L50.7808163,33.0904889 C50.9537755,32.4757333 51.5810408,32.1221333 52.206,32.2954667 C52.8194286,32.4711111 53.1722653,33.1112889 52.997,33.7237333 L49.8191633,44.8725333 C48.834449,48.3276444 45.6427755,50.7404444 42.0567551,50.7404444 L42.0567551,50.7404444 Z"></path>
                    <path d="M13.2901837,46.1182222 C11.7543061,46.1182222 10.3844694,45.0851556 9.9647551,43.6037333 L8.46808163,38.3482667 C8.29281633,37.7335111 8.64795918,37.0956444 9.25908163,36.92 C9.87712245,36.7443556 10.5113061,37.1025778 10.6842653,37.7150222 L12.1809388,42.9704889 C12.3239184,43.4627556 12.7782245,43.8094222 13.2901837,43.8094222 C13.9266735,43.8094222 14.4432449,44.3271111 14.4432449,44.9649778 C14.4432449,45.6028444 13.9266735,46.1182222 13.2901837,46.1182222 L13.2901837,46.1182222 Z"></path>
                    <path d="M12.6836735,55.3626667 C12.5107143,55.3626667 12.335449,55.3233778 12.167102,55.2401778 C11.5974898,54.9536 11.3668776,54.2602667 11.6505306,53.6894222 L13.9566531,49.0672 C14.2449184,48.4940444 14.934449,48.2698667 15.5040612,48.5495111 C16.0736735,48.8360889 16.3042857,49.5294222 16.0206327,50.1002667 L13.7145102,54.7224889 C13.5115714,55.1292444 13.1056939,55.3626667 12.6836735,55.3626667 L12.6836735,55.3626667 Z"></path>
                    <path d="M42.6632653,55.3626667 C42.2412449,55.3626667 41.8353673,55.1292444 41.6324286,54.7248 L39.3263061,50.1025778 C39.0426531,49.5317333 39.2732653,48.8384 39.8428776,48.5518222 C40.4124898,48.2675556 41.1043265,48.4963556 41.3902857,49.0695111 L43.6964082,53.6917333 C43.9800612,54.2625778 43.749449,54.9559111 43.1798367,55.2424889 C43.0114898,55.3233778 42.8362245,55.3626667 42.6632653,55.3626667 L42.6632653,55.3626667 Z"></path>
                    <path d="M49.5816327,29.9404444 C48.9451429,29.9404444 48.4285714,29.4227556 48.4285714,28.7848889 L48.4285714,4.51822222 C48.4285714,3.35804444 47.4876735,2.41511111 46.33,2.41511111 C45.7557755,2.41511111 45.2276735,2.63466667 44.8333265,3.03217778 L41.1735102,6.6976 C40.7238163,7.14826667 39.9927755,7.14826667 39.5430816,6.6976 C39.0933878,6.24693333 39.0933878,5.51431111 39.5430816,5.06364444 L43.202898,1.39591111 C44.0354082,0.5616 45.1423469,0.101688889 46.3184694,0.101688889 C48.7629592,0.101688889 50.737,2.08231111 50.737,4.51591111 L50.737,28.7825778 C50.7346939,29.4227556 50.2181224,29.9404444 49.5816327,29.9404444 L49.5816327,29.9404444 Z"></path>
                    <path d="M40.3571429,13.9706667 C40.0504286,13.9706667 39.7483265,13.8481778 39.531551,13.6193778 L32.6131837,6.47804444 C32.3133878,6.17066667 32.2096122,5.72 32.3456735,5.31093333 C32.4817347,4.90186667 32.8299592,4.60142222 33.2542857,4.5344 L39.0195918,3.58684444 C39.3908776,3.52213333 39.757551,3.64462222 40.0227551,3.9104 L42.3288776,6.22151111 C42.601,6.49422222 42.7209184,6.88711111 42.6448163,7.26613333 L41.4917551,13.0439111 C41.4087347,13.4645333 41.0974082,13.8042667 40.6869184,13.9244444 C40.5762245,13.9544889 40.4655306,13.9706667 40.3571429,13.9706667 L40.3571429,13.9706667 Z M35.802551,6.45493333 L39.6560816,10.4323556 L40.2579796,7.41635556 L38.8074286,5.96266667 L35.802551,6.45493333 L35.802551,6.45493333 Z"></path>
                    <path d="M24.2142857,18.3848889 C23.919102,18.3848889 23.6239184,18.2716444 23.3979184,18.0474667 C22.9482245,17.5968 22.9482245,16.8641778 23.3979184,16.4135111 L25.7040408,14.1024 C26.1537347,13.6517333 26.8847755,13.6517333 27.3344694,14.1024 C27.7841633,14.5530667 27.7841633,15.2856889 27.3344694,15.7363556 L25.0283469,18.0474667 C24.8046531,18.2716444 24.5094694,18.3848889 24.2142857,18.3848889 L24.2142857,18.3848889 Z"></path>
                    <path d="M28.8265306,23.0071111 C28.5313469,23.0071111 28.2361633,22.8938667 28.0101633,22.6696889 C27.5604694,22.2190222 27.5604694,21.4864 28.0101633,21.0357333 L30.3162857,18.7246222 C30.7659796,18.2739556 31.4970204,18.2739556 31.9467143,18.7246222 C32.3964082,19.1752889 32.3964082,19.9079111 31.9467143,20.3585778 L29.6405918,22.6696889 C29.416898,22.8938667 29.1217143,23.0071111 28.8265306,23.0071111 L28.8265306,23.0071111 Z"></path>
                    <path d="M31.1326531,16.0737778 C30.8374694,16.0737778 30.5422857,15.9605333 30.3162857,15.7363556 C29.8665918,15.2856889 29.8665918,14.5530667 30.3162857,14.1024 L32.6224082,11.7912889 C33.072102,11.3406222 33.8031429,11.3406222 34.2528367,11.7912889 C34.7025306,12.2419556 34.7025306,12.9745778 34.2528367,13.4252444 L31.9467143,15.7363556 C31.7230204,15.9605333 31.4278367,16.0737778 31.1326531,16.0737778 L31.1326531,16.0737778 Z"></path>
                </g>
            </g>
        </g>
    </g>
</svg>
