<svg width="84px" height="66px" viewBox="0 0 84 66" version="1.1" xmlns="http://www.w3.org/2000/svg" xmlns:xlink="http://www.w3.org/1999/xlink">
    <title>Shape</title>
    <defs></defs>
    <g id="DesignDesktop" stroke="none" stroke-width="1" fill="none" fill-rule="evenodd">
        <g id="DesktopLanding" transform="translate(-746.000000, -1344.000000)" fill="#7ADED4">
            <g id="Group-6" transform="translate(338.000000, 1344.000000)">
                <g id="noun_434628_cc" transform="translate(408.000000, 0.000000)">
                    <g id="Group">
                        <path d="M82.506,34.584 C80.655,34.447 79.068,34.672 77.746,35.062 C77.861,34.633 77.952,34.184 78.009,33.721 C78.109,32.899 77.524,32.151 76.701,32.051 C75.878,31.955 75.131,32.536 75.03,33.359 C74.844,34.881 74.122,36.208 73.563,37.042 C68.926,34.272 60.436,27.102 59.623,26.412 C58.729,25.469 50.069,16.601 40.463,16.601 C38.025,16.601 35.529,17.375 33.568,18.278 C33.572,18.189 33.582,18.103 33.582,18.013 C33.578,17.187 32.908,16.519 32.082,16.519 L32.076,16.519 C31.248,16.522 30.579,17.196 30.582,18.025 C30.588,19.384 29.883,20.724 29.879,20.733 C29.877,20.735 29.877,20.737 29.876,20.738 C29.875,20.739 29.873,20.741 29.873,20.742 C27.073,26.004 22.807,27.345 19.72,27.544 C17.747,27.671 16.08,27.359 14.895,26.636 C14.214,26.22 14.18,25.944 14.165,25.813 C14.026,24.671 15.622,22.42 17.312,20.038 C18.731,18.038 20.338,15.77 21.778,13.075 C22.854,10.873 23.962,9.647 25.37,9.1 C32.725,6.249 39.042,3.889 41.824,3.889 C43.1,3.889 45.298,4.318 47.841,4.814 C50.632,5.359 54.107,6.037 57.76,6.42 C64.078,7.083 71.053,10.749 72.389,17.444 C72.55,18.257 73.341,18.784 74.154,18.622 C74.966,18.46 75.493,17.67 75.331,16.857 C74.853,14.463 73.803,12.398 72.386,10.641 C74.121,10.403 76.449,9.912 78.721,8.887 C79.477,8.546 79.813,7.658 79.472,6.903 C79.132,6.148 78.244,5.812 77.489,6.152 C73.756,7.835 69.669,7.865 69.628,7.865 C69.598,7.865 69.568,7.872 69.538,7.874 C66.242,5.335 62.048,3.852 58.074,3.436 C54.553,3.066 51.293,2.43 48.417,1.869 C45.61,1.321 43.393,0.889 41.826,0.889 C40.579,0.889 38.944,1.207 36.956,1.772 C34.013,1.855 31.949,1.618 30.128,1.406 C27.31,1.078 24.877,0.795 20.813,1.898 C18.105,2.632 16.081,3.416 14.294,4.106 C10.958,5.397 8.942,6.176 5.392,5.484 C4.578,5.322 3.792,5.857 3.634,6.67 C3.475,7.483 4.006,8.271 4.82,8.429 C5.927,8.645 6.927,8.74 7.859,8.74 C10.632,8.74 12.802,7.901 15.377,6.905 C17.096,6.24 19.042,5.488 21.6,4.794 C24.944,3.887 26.889,4.053 29.414,4.344 C27.812,4.943 26.106,5.598 24.288,6.303 C21.513,7.381 20.05,9.784 19.11,11.709 C17.785,14.19 16.235,16.375 14.868,18.303 C12.658,21.419 10.912,23.881 11.189,26.176 C11.339,27.404 12.062,28.421 13.336,29.197 C15.075,30.259 17.29,30.707 19.917,30.538 C23.718,30.293 28.948,28.674 32.401,22.38 C33.157,21.811 36.722,19.601 40.465,19.601 C49.102,19.601 57.408,28.433 57.491,28.521 C57.53,28.563 57.572,28.604 57.616,28.642 C58.061,29.021 68.559,37.952 73.231,40.29 C73.703,40.558 74.001,40.938 74.141,41.451 C74.356,42.236 74.173,43.278 73.663,44.169 C72.843,45.605 70.459,46.189 69.805,46.105 C67.841,45.801 61.865,44.876 53.954,38.168 C53.322,37.632 52.375,37.71 51.84,38.342 C51.305,38.974 51.383,39.921 52.015,40.456 C59.527,46.827 65.534,48.39 68.393,48.911 C68.261,49.571 67.97,50.204 67.501,50.747 C66.691,51.685 65.497,52.251 64.139,52.339 C61.932,52.484 54.045,50.571 49.348,46.398 C48.729,45.848 47.779,45.904 47.231,46.523 C46.681,47.142 46.736,48.091 47.356,48.64 C51.127,51.992 56.634,54.062 60.568,54.906 C59.965,55.791 59.14,56.373 58.061,56.656 C54.096,57.711 47.931,54.646 46.23,53.474 C45.947,51.937 45.062,50.626 43.755,49.851 C42.498,49.103 40.94,48.896 39.251,49.206 C38.875,47.946 37.959,46.712 36.723,45.863 C35.234,44.84 33.417,44.43 31.513,44.651 C30.544,42.1 27.859,40.772 25.367,40.772 C25.239,40.772 25.112,40.776 24.99,40.783 C23.63,40.863 22.251,41.448 20.96,42.245 C20.905,41.944 20.829,41.673 20.743,41.434 C20.08,39.579 18.507,38.391 17.257,37.899 C14.652,36.874 11.157,37.665 8.589,39.799 C7.249,38.686 4.817,36.922 2.023,36.115 C1.225,35.886 0.396,36.345 0.166,37.14 C-0.063,37.937 0.395,38.768 1.191,38.997 C3.464,39.653 5.529,41.161 6.662,42.099 C6.074,43.224 5.847,44.451 6.034,45.662 C6.358,47.761 7.828,49.558 10.068,50.597 C11.035,51.044 12.009,51.269 12.973,51.269 C13.306,51.269 13.636,51.234 13.965,51.179 C14.023,51.726 14.153,52.224 14.288,52.642 C15.131,55.275 17.843,57.029 19.909,57.732 C20.499,57.931 21.295,58.16 22.221,58.162 C22.467,58.162 22.707,58.127 22.949,58.094 C23.902,60.451 25.792,62.018 28.616,62.735 C29.101,62.858 29.65,62.93 30.234,62.93 C31.115,62.93 32.076,62.756 33.013,62.348 C34.132,63.584 36.174,65.112 38.533,65.112 C39.082,65.112 39.648,65.03 40.224,64.841 C41.408,64.45 42.461,63.609 43.349,62.536 C44.127,63.009 45.919,63.966 48.048,64.184 C48.43,64.223 48.8,64.245 49.161,64.245 C52.263,64.245 54.603,62.763 56.159,59.862 C56.192,59.864 56.227,59.866 56.261,59.866 C57.145,59.866 58.009,59.772 58.825,59.557 C61.087,58.959 62.766,57.506 63.748,55.336 C63.811,55.338 63.884,55.344 63.943,55.344 C64.081,55.344 64.211,55.34 64.331,55.332 C66.501,55.191 68.434,54.258 69.772,52.705 C70.719,51.609 71.289,50.299 71.439,48.92 C73.151,48.524 75.218,47.494 76.268,45.656 C77.171,44.075 77.457,42.206 77.034,40.657 C76.868,40.054 76.595,39.513 76.232,39.03 C77.372,38.269 79.379,37.355 82.284,37.576 C83.097,37.623 83.83,37.018 83.891,36.191 C83.952,35.365 83.332,34.646 82.506,34.584 L82.506,34.584 Z M11.327,47.877 C10.014,47.268 9.166,46.293 8.997,45.205 C8.844,44.213 9.285,43.185 10.24,42.312 C12.222,40.496 14.717,40.122 16.156,40.689 C16.813,40.947 17.612,41.589 17.917,42.443 C18.174,43.162 18.052,43.994 17.582,44.91 C16.482,45.96 15.625,46.943 15.144,47.529 C13.879,48.379 12.662,48.494 11.327,47.877 L11.327,47.877 Z M20.872,54.891 C19.357,54.377 17.592,53.125 17.144,51.729 C16.804,50.668 16.923,50.165 17.185,49.768 C18.119,48.497 22.316,43.946 25.165,43.778 C25.231,43.774 25.298,43.772 25.365,43.772 C26.637,43.772 28.62,44.454 28.862,46.331 C29.233,49.206 26.611,52.429 24.253,54.313 C23.302,55.073 22.637,55.163 22.219,55.163 C21.84,55.162 21.424,55.078 20.872,54.891 L20.872,54.891 Z M29.353,59.826 C28.023,59.488 26.473,58.846 25.708,56.947 C25.848,56.849 25.988,56.767 26.127,56.656 C27.469,55.584 31.461,52.031 31.859,47.623 C33.326,47.449 34.375,47.891 35.023,48.336 C35.908,48.943 36.37,49.764 36.435,50.307 C36.738,52.807 34.476,57.401 32.949,58.85 C31.791,59.951 30.288,60.063 29.353,59.826 L29.353,59.826 Z M39.285,61.99 C37.765,62.494 36.245,61.361 35.449,60.572 C37.027,58.789 38.828,55.297 39.324,52.258 C40.482,51.955 41.496,51.998 42.22,52.428 C42.825,52.787 43.212,53.405 43.31,54.162 C43.628,56.627 41.524,61.254 39.285,61.99 L39.285,61.99 Z M48.356,61.199 C46.846,61.043 45.519,60.34 44.957,60.002 C45.455,58.975 45.83,57.893 46.061,56.857 C47.802,57.812 50.277,58.892 52.869,59.462 C51.48,61.232 49.775,61.35 48.356,61.199 L48.356,61.199 Z" id="Shape"></path>
                    </g>
                </g>
            </g>
        </g>
    </g>
</svg>
