<svg width="94px" height="97px" viewBox="0 0 94 97" version="1.1" xmlns="http://www.w3.org/2000/svg" xmlns:xlink="http://www.w3.org/1999/xlink">
    <title>Group</title>
    <defs></defs>
    <g id="DesignDesktop" stroke="none" stroke-width="1" fill="none" fill-rule="evenodd">
        <g id="DesktopLanding" transform="translate(-741.000000, -1076.000000)">
            <g id="Group-5" transform="translate(196.000000, 1076.000000)">
                <g id="noun_176842_cc" transform="translate(545.000000, 0.000000)">
                    <g id="Group">
                        <path d="M53.9883382,94 L36.7230321,94" id="Shape" stroke="#7ADED4" stroke-width="5"></path>
                        <g id="Shape" fill="#7ADED4">
                            <path d="M53.9883382,82.057971 L36.7230321,82.057971 C34.8309738,82.057971 33.2973761,83.5991739 33.2973761,85.5 C33.2973761,87.4008261 34.8309738,88.942029 36.7230321,88.942029 L53.9883382,88.942029 C55.8801224,88.942029 57.4139942,87.4008261 57.4139942,85.5 C57.4139942,83.5991739 55.8801224,82.057971 53.9883382,82.057971 L53.9883382,82.057971 Z"></path>
                            <path d="M19.8279708,25.8554203 L11.7954927,17.7845507 C10.4589388,16.4418841 8.29227988,16.4418841 6.95572595,17.7845507 C5.61944606,19.1274928 5.61944606,21.3045072 6.95572595,22.6474493 L14.9882041,30.7183188 C15.656344,31.3896522 16.5322157,31.7253188 17.4080875,31.7253188 C18.2839592,31.7253188 19.1598309,31.3896522 19.8279708,30.7183188 C21.1645248,29.3753768 21.1645248,27.1983623 19.8279708,25.8554203 L19.8279708,25.8554203 Z"></path>
                            <path d="M45.9037901,18.8623188 C47.7955743,18.8623188 49.3294461,17.3213913 49.3294461,15.4202899 L49.3294461,3.57971014 C49.3294461,1.6786087 47.7955743,0.137681159 45.9037901,0.137681159 C44.0117318,0.137681159 42.4781341,1.6786087 42.4781341,3.57971014 L42.4781341,15.4202899 C42.4781341,17.3213913 44.0117318,18.8623188 45.9037901,18.8623188 L45.9037901,18.8623188 Z"></path>
                            <path d="M13.4285714,55.3478261 L3.28862974,55.3478261 C1.54812245,55.3478261 0.137026239,56.7653913 0.137026239,58.5144928 C0.137026239,60.2635942 1.54812245,61.6811594 3.28862974,61.6811594 L13.4285714,61.6811594 C15.1690787,61.6811594 16.5801749,60.2635942 16.5801749,58.5144928 C16.5801749,56.7653913 15.1690787,55.3478261 13.4285714,55.3478261 L13.4285714,55.3478261 Z"></path>
                            <path d="M90.7113703,55.3478261 L80.5714286,55.3478261 C78.8306472,55.3478261 77.4198251,56.7653913 77.4198251,58.5144928 C77.4198251,60.2635942 78.8306472,61.6811594 80.5714286,61.6811594 L90.7113703,61.6811594 C92.4521516,61.6811594 93.8629738,60.2635942 93.8629738,58.5144928 C93.8629738,56.7653913 92.4521516,55.3478261 90.7113703,55.3478261 L90.7113703,55.3478261 Z"></path>
                            <path d="M83.0499592,16.0971304 C81.7134052,14.7541884 79.5467464,14.7541884 78.2101924,16.0971304 L71.7869504,22.5510725 C70.4503965,23.8937391 70.4506706,26.071029 71.7869504,27.413971 C72.4550904,28.0853043 73.3309621,28.420971 74.2068338,28.420971 C75.0824315,28.420971 75.9585773,28.0853043 76.6267172,27.4136957 L83.0499592,20.9597536 C84.3865131,19.617087 84.3862391,17.4397971 83.0499592,16.0971304 L83.0499592,16.0971304 Z"></path>
                            <path d="M45.8341808,21.9714348 C31.4362857,21.9714348 19.7227347,33.740971 19.7227347,48.2076812 C19.7227347,56.5164638 23.7033469,64.4204638 30.3707697,69.3508261 C30.4137959,69.3824928 30.4581924,69.4108551 30.5023149,69.4400435 L30.4390087,76.104913 C30.4302391,77.0235217 30.7873294,77.9074348 31.4308047,78.5600435 C32.0742799,79.2126522 32.9504257,79.5797101 33.8646647,79.5797101 L56.180758,79.5797101 C58.0725423,79.5797101 59.606414,78.0385072 59.606414,76.1376812 C59.606414,74.2368551 58.0725423,72.6956522 56.180758,72.6956522 L37.3226589,72.6956522 L37.3665073,68.127942 C37.3824023,66.4380435 36.1831487,65.0548986 34.5881633,64.7676957 C34.4382566,64.5936667 34.2691662,64.4323043 34.0770554,64.2904928 C29.00407,60.5395072 25.975516,54.5272464 25.975516,48.2076812 C25.975516,37.2053043 34.8838659,28.2543768 45.8339067,28.2543768 C56.7842216,28.2543768 65.6925714,37.2053043 65.6925714,48.2076812 C65.6925714,51.6926667 64.7860058,55.1214783 63.0712595,58.1237536 C62.2115569,59.6283333 62.7289679,61.5484348 64.2266647,62.411971 C65.7238134,63.2752319 67.6353294,62.7556232 68.494484,61.2510435 C70.7521283,57.2984928 71.9456268,52.7883333 71.9456268,48.2074058 C71.9456268,33.740971 60.2320758,21.9714348 45.8341808,21.9714348 L45.8341808,21.9714348 Z"></path>
                            <path d="M41.0481283,39.7265217 C42.5545948,38.579913 42.8508455,36.423 41.7094169,34.9093333 C40.5682624,33.3956667 38.4218834,33.0977246 36.9151429,34.2448841 C32.7024082,37.4514783 30.2863615,42.3331014 30.2863615,47.6379565 C30.2863615,52.392913 32.3053061,56.9446522 35.8252362,60.1264638 C36.4791254,60.7173913 37.2974461,61.0084493 38.1130262,61.0084493 C39.0497376,61.0084493 39.9826122,60.6243188 40.6584257,59.8695507 C41.9223557,58.4574928 41.8080758,56.2835072 40.4030087,55.0132609 C38.3234985,53.133913 37.1310962,50.4455507 37.1310962,47.6379565 C37.1305481,44.5048841 38.5586356,41.6212899 41.0481283,39.7265217 L41.0481283,39.7265217 Z"></path>
                        </g>
                    </g>
                </g>
            </g>
        </g>
    </g>
</svg>
