<svg width="49px" height="89px" viewBox="0 0 49 89" version="1.1" xmlns="http://www.w3.org/2000/svg" xmlns:xlink="http://www.w3.org/1999/xlink">
    <title>Group</title>
    <defs></defs>
    <g id="DesignDesktop" stroke="none" stroke-width="1" fill="none" fill-rule="evenodd">
        <g id="DesktopLanding" transform="translate(-600.000000, -1215.000000)" fill="#7ADED4">
            <g id="Group-2" transform="translate(600.000000, 1215.000000)">
                <g id="Group">
                    <path d="M24.751875,0 L24.7341293,0 L24.2658707,0 L24.248125,0 L0,57 L9.16367205,57 L12.3264212,49.1979677 L12.3493189,49.1979677 L16.6741279,38.6054784 C17.8619477,35.6712371 19.801958,30.9298371 21.4631884,26.87663 L24.5,19.4386964 L27.5368116,26.87663 C29.198042,30.9298371 31.1380523,35.6712371 32.3258721,38.6054784 L36.6506811,49.1979677 L36.6735788,49.1979677 L39.8357555,57 L49,57 L24.751875,0 Z" id="Fill-2"></path>
                    <path d="M39.8441637,63 C39.8533333,63.227426 39.8774035,63.4512984 39.8774035,63.6816856 C39.8774035,72.4583144 32.9927602,79.5730752 24.5,79.5730752 C16.0072398,79.5730752 9.12259649,72.4583144 9.12259649,63.6816856 C9.12259649,63.4512984 9.14666667,63.227426 9.15583626,63 L0.0332397661,63 C0.0275087719,63.2286105 0,63.4512984 0,63.6816856 C0,77.6648292 10.9691228,89 24.5,89 C38.0308772,89 49,77.6648292 49,63.6816856 C49,63.4512984 48.9724912,63.2286105 48.9661871,63 L39.8441637,63 Z" id="Fill-8"></path>
                </g>
            </g>
        </g>
    </g>
</svg>
